<svg width="69" height="31" viewBox="0 0 69 31" fill="none" xmlns="http://www.w3.org/2000/svg">
<path fill-rule="evenodd" clip-rule="evenodd" d="M26.4198 8.97368C26.4198 10.3791 26.0421 11.7015 25.3771 12.856C23.3691 8.17689 18.6774 4.89474 13.2099 4.89474C12.1102 4.89474 11.0419 5.02752 10.0204 5.27774C11.453 2.62968 14.3768 0.815789 17.7508 0.815789C20.1719 0.815789 22.3612 1.74978 23.934 3.25577C25.4714 4.72788 26.4198 6.74656 26.4198 8.97368Z" fill="black" fill-opacity="0.8"/>
<path fill-rule="evenodd" clip-rule="evenodd" d="M42.1065 8.97368C42.1065 10.3791 42.4842 11.7015 43.1492 12.856C45.1572 8.17689 49.8489 4.89474 55.3164 4.89474C56.4161 4.89474 57.4845 5.02752 58.5059 5.27774C57.0734 2.62968 54.1495 0.815789 50.7755 0.815789C48.3544 0.815789 46.1651 1.74978 44.5923 3.25577C43.0549 4.72788 42.1065 6.74656 42.1065 8.97368Z" fill="black" fill-opacity="0.8"/>
<path d="M55.3164 31C62.612 31 68.5263 25.1561 68.5263 17.9474C68.5263 11.8252 64.2606 6.68751 58.5059 5.27774C57.4845 5.02752 56.4161 4.89474 55.3164 4.89474C49.8489 4.89474 45.1572 8.17689 43.1492 12.856C42.4779 14.4204 42.1065 16.141 42.1065 17.9474C42.1065 18.4911 42.1402 19.0271 42.2055 19.5534C43.0066 26.0045 48.5711 31 55.3164 31Z" fill="black" fill-opacity="0.8"/>
<path d="M0 17.9474C0 25.1561 5.91427 31 13.2099 31C19.9552 31 25.5197 26.0045 26.3208 19.5534C26.3861 19.0271 26.4198 18.4911 26.4198 17.9474C26.4198 16.141 26.0484 14.4204 25.3771 12.856C23.3691 8.17689 18.6774 4.89474 13.2099 4.89474C12.1102 4.89474 11.0419 5.02752 10.0204 5.27774C4.26567 6.68751 0 11.8252 0 17.9474Z" fill="black" fill-opacity="0.8"/>
<path d="M26.4198 8.97368C26.4198 10.3791 26.0421 11.7015 25.3771 12.856C26.0484 14.4204 26.4198 16.141 26.4198 17.9474C26.4198 18.4911 26.3861 19.0271 26.3208 19.5534C30.3787 19.266 33.4478 20.6804 33.8502 15.9079C34.2606 11.0406 24.8741 6.5764 30.4524 6.92788C31.262 8.15927 32.6663 8.97368 34.2632 8.97368C35.86 8.97368 37.2643 8.15927 38.0739 6.92788C43.6522 6.5764 34.2657 11.0406 34.6761 15.9079C35.0785 20.6804 38.1476 19.266 42.2055 19.5534C42.1402 19.0271 42.1065 18.4911 42.1065 17.9474C42.1065 16.141 42.4779 14.4204 43.1492 12.856C42.4842 11.7015 42.1065 10.3791 42.1065 8.97368C42.1065 6.74656 43.0549 4.72788 44.5923 3.25577C41.3199 3.19537 39.3449 2.77429 38.2522 2.34118C37.4821 0.946332 35.9845 0 34.2632 0C32.5419 0 31.0443 0.946332 30.2742 2.34118C29.1814 2.77429 27.2064 3.19537 23.934 3.25577C25.4714 4.72788 26.4198 6.74656 26.4198 8.97368Z" fill="black" fill-opacity="0.8"/>
<path d="M19.5789 17.5395C19.5789 17.8379 19.5621 18.1323 19.5293 18.4219C19.1191 22.041 16.2162 24.9043 12.579 25.2537C12.3322 25.2774 12.082 25.2895 11.8289 25.2895C7.54874 25.2895 4.07895 21.8197 4.07895 17.5395C4.07895 16.4178 4.31723 15.3519 4.74592 14.3894C5.95314 11.679 8.67038 9.78949 11.8289 9.78949C12.1644 9.78949 12.4949 9.81081 12.8192 9.85216C16.6318 10.3384 19.5789 13.5948 19.5789 17.5395Z" fill="#888686"/>
<path fill-rule="evenodd" clip-rule="evenodd" d="M12.579 25.2537C16.2162 24.9043 19.1191 22.041 19.5293 18.4219C16.659 15.8444 14.7203 13.4929 12.8192 9.85216C12.4949 9.81081 12.1644 9.78949 11.8289 9.78949C8.67038 9.78949 5.95314 11.679 4.74592 14.3894C8.55574 17.795 10.5287 20.7116 12.579 25.2537Z" fill="white"/>
<path d="M65.2632 17.5395C65.2632 17.8379 65.2463 18.1323 65.2135 18.4219C64.8033 22.041 61.9005 24.9043 58.2632 25.2537C58.0164 25.2774 57.7662 25.2895 57.5132 25.2895C53.233 25.2895 49.7632 21.8197 49.7632 17.5395C49.7632 16.4178 50.0014 15.3519 50.4301 14.3894C51.6374 11.679 54.3546 9.78949 57.5132 9.78949C57.8487 9.78949 58.1792 9.81081 58.5034 9.85216C62.316 10.3384 65.2632 13.5948 65.2632 17.5395Z" fill="#888686"/>
<path fill-rule="evenodd" clip-rule="evenodd" d="M58.2632 25.2537C61.9005 24.9043 64.8033 22.041 65.2135 18.4219C62.3433 15.8444 60.4045 13.4929 58.5034 9.85216C58.1792 9.81081 57.8487 9.78949 57.5132 9.78949C54.3546 9.78949 51.6374 11.679 50.4301 14.3894C54.24 17.795 56.2129 20.7116 58.2632 25.2537Z" fill="white"/>
</svg>
